<?xml version="1.0" encoding="utf-8"?>
<!-- Generator: Adobe Illustrator 16.0.0, SVG Export Plug-In . SVG Version: 6.00 Build 0)  -->
<!DOCTYPE svg PUBLIC "-//W3C//DTD SVG 1.1//EN" "http://www.w3.org/Graphics/SVG/1.1/DTD/svg11.dtd">
<svg version="1.1"
	 id="Layer_1" xmlns:inkscape="http://www.inkscape.org/namespaces/inkscape" xmlns:sodipodi="http://sodipodi.sourceforge.net/DTD/sodipodi-0.dtd" xmlns:cc="http://creativecommons.org/ns#" xmlns:svg="http://www.w3.org/2000/svg" xmlns:rdf="http://www.w3.org/1999/02/22-rdf-syntax-ns#" xmlns:dc="http://purl.org/dc/elements/1.1/"
	 xmlns="http://www.w3.org/2000/svg" xmlns:xlink="http://www.w3.org/1999/xlink" x="0px" y="0px" width="1078.5px"
	 height="1078.5px" viewBox="0 0 1078.5 1078.5" enable-background="new 0 0 1078.5 1078.5" xml:space="preserve">
<g transform="translate(0,-952.36218)">
	<path d="M605.3,1210.977c-12.178,0.471-23.534,9.531-26.699,21.3l-134.4,460.801c-5.497,14.812,3.849,33.324,19.031,37.698
		c15.184,4.372,32.943-6.332,36.169-21.8l134.4-460.8C639.129,1230.727,623.535,1210.372,605.3,1210.977L605.3,1210.977z
		 M367.1,1297.377c-5.9-0.126-11.783,2.651-16.199,4.8l-230.4,144c-8.263,5.146-13.578,14.716-13.578,24.45
		s5.315,19.305,13.578,24.45l230.4,144c12.801,8.011,31.738,3.651,39.749-9.15c8.012-12.802,3.652-31.738-9.149-39.75l-191.4-119.4
		l191.4-119.7c10.839-6.304,16.585-20.247,13.338-32.356C391.591,1306.608,379.639,1297.412,367.1,1297.377z M710.601,1297.676
		c-12.31,0.37-23.84,9.53-26.983,21.437c-3.145,11.906,2.361,25.565,12.883,31.964l191.4,119.7l-191.4,119.4
		c-12.802,8.011-17.161,26.948-9.149,39.75c8.011,12.803,26.948,17.162,39.749,9.15l230.4-144
		c8.263-5.146,13.578-14.716,13.578-24.45s-5.315-19.305-13.578-24.45l-230.4-144
		C722.221,1299.064,716.385,1297.474,710.601,1297.676L710.601,1297.676z"/>
</g>
</svg>
