<?xml version="1.0" encoding="utf-8"?>
<!-- Generator: Adobe Illustrator 16.0.0, SVG Export Plug-In . SVG Version: 6.00 Build 0)  -->
<!DOCTYPE svg PUBLIC "-//W3C//DTD SVG 1.1//EN" "http://www.w3.org/Graphics/SVG/1.1/DTD/svg11.dtd">
<svg version="1.1" id="Layer_1" xmlns="http://www.w3.org/2000/svg" xmlns:xlink="http://www.w3.org/1999/xlink" x="0px" y="0px"
	 width="1200px" height="1200px" viewBox="0 0 1200 1200" enable-background="new 0 0 1200 1200" xml:space="preserve">
<path d="M992.64,451.76H751.68c-7.68,0-14.399-6.72-14.399-14.4v-240c0-11.52-9.601-21.12-21.12-21.12H482.88
	c-11.52,0-21.12,9.6-21.12,21.12v240.96c0,7.68-6.72,14.4-14.399,14.4h-240c-11.52,0-21.12,9.6-21.12,21.12v234.24
	c0,11.52,9.6,21.12,21.12,21.12h240.96c7.68,0,14.399,6.72,14.399,14.399v240.96c0,11.521,9.601,21.12,21.12,21.12h234.24
	c11.52,0,21.12-9.6,21.12-21.12V741.68c0-7.68,6.72-14.399,14.399-14.399h240.96c11.521,0,21.12-9.601,21.12-21.12V472.88
	C1013.76,461.36,1004.16,451.76,992.64,451.76z M403.2,649.52c0,3.841-2.88,6.721-6.72,6.721h-64.32c-3.84,0-6.721,2.88-6.721,6.72
	v12.48c0,5.76-6.72,8.64-10.56,4.8l-85.44-84.48c-2.88-2.88-2.88-6.72,0-8.64l85.44-84.48c3.84-3.84,10.56-0.96,10.56,4.8v12.479
	c0,3.84,2.881,6.72,6.721,6.72h64.32c3.84,0,6.72,2.88,6.72,6.721V649.52z M689.28,874.16L604.8,959.6
	c-2.88,2.881-6.72,2.881-8.64,0l-84.48-85.439c-3.84-3.84-0.96-10.561,4.801-10.561h12.479c3.84,0,6.72-2.88,6.72-6.72v-64.319
	c0-3.841,2.88-6.721,6.721-6.721h120c3.84,0,6.72,2.88,6.72,6.721v64.319c0,3.84,2.88,6.72,6.72,6.72h12.48
	C690.24,863.6,693.12,870.32,689.28,874.16z M519.36,590c0-45.12,36.479-80.64,80.64-80.64s80.64,36.479,80.64,80.64
	S644.16,670.64,600,670.64S519.36,635.12,519.36,590z M684.48,316.4H672c-3.84,0-6.72,2.88-6.72,6.72v64.32
	c0,3.84-2.88,6.72-6.721,6.72H540.48c-3.841,0-6.721-2.88-6.721-6.72v-64.32c0-3.84-2.88-6.72-6.72-6.72h-12.48
	c-5.76,0-8.64-6.72-4.8-10.56l84.48-85.44c2.88-2.88,6.72-2.88,8.64,0l84.48,85.44C693.12,309.68,690.24,316.4,684.48,316.4z
	 M969.6,594.8l-85.439,84.48c-3.84,3.84-10.561,0.96-10.561-4.8V662c0-3.84-2.88-6.72-6.72-6.72h-64.319
	c-3.841,0-6.721-2.88-6.721-6.721V530.48c0-3.841,2.88-6.721,6.721-6.721h64.319c3.84,0,6.72-2.88,6.72-6.72v-12.48
	c0-5.76,6.721-8.64,10.561-4.8l85.439,84.48C972.48,588.08,972.48,591.92,969.6,594.8z M992.64,409.52H780.48V197.36
	c0-34.56-28.801-63.36-63.36-63.36H482.88c-34.56,0-63.36,28.8-63.36,63.36v213.12H207.36c-34.56,0-63.36,28.8-63.36,63.36v234.24
	c0,34.56,28.8,63.36,63.36,63.36H420.48v213.12c0,34.56,28.8,63.359,63.359,63.359h234.24c34.56,0,63.36-28.8,63.36-63.359V770.48
	h213.12c34.56,0,63.359-28.801,63.359-63.36V472.88C1056,438.32,1027.2,409.52,992.64,409.52z M1034.88,707.12
	c0,23.04-19.2,42.24-42.24,42.24l0,0H759.36V983.6c0,23.04-19.2,42.24-42.24,42.24l0,0H482.88l0,0h-0.96c-2.88,0-6.72-0.96-9.6-0.96
	c-0.96,0-1.92-0.96-2.88-0.96c-1.921-0.96-4.801-1.92-6.721-2.88l0,0l-0.96-0.96c-1.92-0.96-2.88-1.92-4.8-2.88
	c-2.88-1.92-4.8-3.84-6.72-6.72c-5.76-7.681-9.601-16.32-9.601-26.881V749.36H207.36l0,0h-0.96c-2.88,0-6.72-0.96-9.6-0.96
	c-0.96,0-1.92-0.96-2.88-0.96c-2.88-1.921-4.8-1.921-6.72-3.841l0,0h-0.96c-1.92-0.96-2.88-1.92-4.8-2.88
	c-2.88-1.92-4.8-3.84-6.72-6.72c-5.76-7.68-9.6-16.32-9.6-26.88V472.88c0-13.44,6.72-25.92,16.32-33.6c0.96-0.96,2.88-1.92,4.8-2.88
	h0.96l0,0c1.92-0.96,3.84-1.92,6.72-2.88c0.96,0,1.92-0.96,2.88-0.96c2.88-0.96,6.72-0.96,9.6-0.96h0.96l0,0H441.6V197.36
	c0-13.44,6.721-25.92,16.32-33.6c0.96-0.96,2.88-1.92,4.8-2.88l0.96-0.96l0,0c1.92-0.96,3.84-1.92,5.761-2.88
	c0.96,0,1.92-0.96,2.88-0.96c2.88-0.96,6.72-0.96,9.6-0.96h0.96l0,0h234.24l0,0c23.04,0,42.24,19.2,42.24,42.24V431.6H993.6l0,0
	c23.04,0,42.24,19.2,42.24,42.24v233.28H1034.88z"/>
</svg>
