<?xml version="1.0" encoding="utf-8"?>
<!-- Generator: Adobe Illustrator 16.0.0, SVG Export Plug-In . SVG Version: 6.00 Build 0)  -->
<!DOCTYPE svg PUBLIC "-//W3C//DTD SVG 1.1//EN" "http://www.w3.org/Graphics/SVG/1.1/DTD/svg11.dtd">
<svg version="1.1"
	 id="Layer_1" xmlns:inkscape="http://www.inkscape.org/namespaces/inkscape" xmlns:sodipodi="http://sodipodi.sourceforge.net/DTD/sodipodi-0.dtd" xmlns:cc="http://creativecommons.org/ns#" xmlns:svg="http://www.w3.org/2000/svg" xmlns:rdf="http://www.w3.org/1999/02/22-rdf-syntax-ns#" xmlns:dc="http://purl.org/dc/elements/1.1/"
	 xmlns="http://www.w3.org/2000/svg" xmlns:xlink="http://www.w3.org/1999/xlink" x="0px" y="0px" width="993.5px" height="993.5px"
	 viewBox="144.5 122.5 993.5 993.5" enable-background="new 144.5 122.5 993.5 993.5" xml:space="preserve">
<g transform="translate(0,-952.36218)">
	<path d="M330.955,1657.188c-59.818,59.818-59.819,157.403-0.001,217.221c59.817,59.817,157.403,59.817,217.221-0.002
		l149.341-149.341c57.027-57.027,60.178-148.207,8.275-208.523c-10.316-12.17-28.546-13.671-40.715-3.354
		c-12.17,10.317-13.672,28.546-3.355,40.716c0.053,0.062,0.105,0.123,0.158,0.185c32.663,37.957,31.113,94.043-5.092,130.248
		l-149.341,149.342c-37.96,37.959-97.806,37.959-135.764,0.002c-37.958-37.959-37.958-97.804,0.001-135.764l142.553-142.553
		c11.406-11.088,11.665-29.323,0.578-40.729c-11.088-11.405-29.322-11.664-40.729-0.576c-0.195,0.189-0.389,0.382-0.578,0.577
		L330.955,1657.188z M602.484,1385.658c-57.027,57.028-60.178,148.208-8.275,208.523c10.419,12.083,28.66,13.432,40.742,3.012
		c12.01-10.357,13.426-28.46,3.17-40.558c-32.663-37.958-31.113-94.043,5.092-130.248l149.341-149.341
		c37.959-37.959,97.805-37.96,135.764-0.001c37.958,37.958,37.958,97.804-0.001,135.764l-142.553,142.553
		c-11.414,11.08-11.686,29.314-0.606,40.729s29.314,11.685,40.729,0.605c0.205-0.199,0.407-0.401,0.606-0.606l142.553-142.553
		c59.818-59.818,59.818-157.403,0.002-217.221c-59.817-59.818-157.403-59.817-217.222,0.001L602.484,1385.658L602.484,1385.658z"/>
</g>
</svg>
