<?xml version="1.0" encoding="utf-8"?>
<!-- Generator: Adobe Illustrator 16.0.0, SVG Export Plug-In . SVG Version: 6.00 Build 0)  -->
<!DOCTYPE svg PUBLIC "-//W3C//DTD SVG 1.1//EN" "http://www.w3.org/Graphics/SVG/1.1/DTD/svg11.dtd">
<svg version="1.1" id="Layer_1" xmlns="http://www.w3.org/2000/svg" xmlns:xlink="http://www.w3.org/1999/xlink" x="0px" y="0px"
	 width="1032.5px" height="1032.5px" viewBox="0 0 1032.5 1032.5" enable-background="new 0 0 1032.5 1032.5" xml:space="preserve">
<path d="M522,164.4c-191.04,0-345.6,154.56-345.6,345.6S330.96,855.6,522,855.6S867.6,701.04,867.6,510S713.04,164.4,522,164.4z
	 M676.56,534.96L476.88,672.24c-4.8,2.88-10.56,3.84-15.36,3.84c-4.8,0-9.6-0.96-14.399-3.84c-8.64-4.8-14.4-14.4-14.4-24.96V372.72
	c0-10.56,5.761-20.16,14.4-24.96c8.64-4.8,20.16-4.8,28.8,0L676.56,486c8.641,4.8,13.44,14.4,13.44,24.96
	C690,520.56,685.2,529.2,676.56,534.96z"/>
<path d="M522,106.8c-41.28,0-81.6,6.72-120,18.24c-19.2,5.76-37.44,13.44-54.72,22.08c-17.28,8.64-34.561,18.24-50.88,28.8
	c-10.561,7.68-21.12,15.36-30.721,23.04c-9.6,8.64-19.199,17.28-28.8,25.92c-13.44,13.44-25.92,28.8-38.4,44.16
	c-7.68,10.56-15.36,21.12-22.08,32.64c-6.72,11.52-12.48,22.08-18.24,34.56c-5.76,12.48-10.56,24-15.36,36.48
	c-15.36,42.24-24,88.32-24,137.28s8.64,95.04,24,138.24c4.8,12.479,9.6,24,15.36,36.479c5.76,11.521,11.52,23.04,18.24,34.561
	c6.72,11.52,14.4,22.08,22.08,32.64c11.52,15.36,24,29.76,38.4,44.16c9.601,9.6,18.24,18.24,28.8,25.92
	c9.601,8.64,20.16,16.32,30.721,23.04c16.319,10.56,32.64,20.16,50.88,28.8c17.279,8.641,35.52,15.36,54.72,22.08
	c38.4,10.561,78.72,17.28,120,17.28c222.72,0,403.2-180.48,403.2-403.2S744.72,106.8,522,106.8z M522,874.8
	c-201.6,0-364.8-163.2-364.8-364.8c0-201.6,163.2-364.8,364.8-364.8S886.8,308.4,886.8,510C886.8,711.6,723.6,874.8,522,874.8z"/>
</svg>
